<svg fill="currentColor" viewBox="0 0 28 29" xmlns="http://www.w3.org/2000/svg">
	
	<symbol id="cart-icon" viewBox="0 0 28 29">
		<path fill-rule="evenodd" clip-rule="evenodd" d="M10.9996 0.375C9.95204 0.375 9.04776 0.98868 8.6267 1.87616C7.60139 1.88361 6.80228 1.93068 6.08895 2.20947C5.23667 2.54258 4.49536 3.10883 3.94978 3.84345C3.39938 4.58459 3.14101 5.53452 2.7854 6.84199L2.71582 7.09754L1.94672 11.5421C1.66843 11.7341 1.42672 11.9614 1.21651 12.2307C-0.13474 13.9613 0.508715 16.5351 1.79564 21.6828C2.61415 24.9569 3.02341 26.5938 4.24408 27.5469C5.46475 28.5 7.15214 28.5 10.5269 28.5H17.4729C20.8478 28.5 22.5352 28.5 23.7559 27.5469C24.9764 26.5938 25.3857 24.9569 26.2043 21.6828C27.4911 16.5351 28.1346 13.9613 26.7833 12.2307C26.573 11.9612 26.331 11.7337 26.0525 11.5416L25.2835 7.09754L25.2139 6.84199C24.8582 5.53452 24.5999 4.58459 24.0495 3.84345C23.504 3.10883 22.7626 2.54258 21.9104 2.20947C21.197 1.93068 20.398 1.88361 19.3726 1.87616C18.9515 0.98868 18.0473 0.375 16.9997 0.375H10.9996ZM23.6265 10.7186L23.0846 7.58648C22.6589 6.02691 22.5044 5.53682 22.2431 5.18495C21.9494 4.78937 21.5503 4.48446 21.0913 4.3051C20.7616 4.17624 20.3631 4.13832 19.3705 4.12829C18.9485 5.01338 18.0455 5.625 16.9997 5.625H10.9996C9.95378 5.625 9.05078 5.01338 8.62882 4.12829C7.63607 4.13832 7.2377 4.17624 6.908 4.3051C6.44907 4.48446 6.04991 4.78937 5.75613 5.18493C5.49482 5.5368 5.34032 6.02691 4.91465 7.58648L4.37264 10.7187C5.86988 10.5 7.8644 10.5 10.5269 10.5H17.4729C20.1351 10.5 22.1294 10.5 23.6265 10.7186ZM8 15.375C8.62132 15.375 9.125 15.8787 9.125 16.5V22.5C9.125 23.1213 8.62132 23.625 8 23.625C7.37868 23.625 6.875 23.1213 6.875 22.5V16.5C6.875 15.8787 7.37868 15.375 8 15.375ZM21.125 16.5C21.125 15.8787 20.6213 15.375 20 15.375C19.3787 15.375 18.875 15.8787 18.875 16.5V22.5C18.875 23.1213 19.3787 23.625 20 23.625C20.6213 23.625 21.125 23.1213 21.125 22.5V16.5ZM14 15.375C14.6213 15.375 15.125 15.8787 15.125 16.5V22.5C15.125 23.1213 14.6213 23.625 14 23.625C13.3787 23.625 12.875 23.1213 12.875 22.5V16.5C12.875 15.8787 13.3787 15.375 14 15.375Z"/>
	</symbol>

</svg>
