<svg fill="currentColor" viewBox="0 0 40 26" xmlns="http://www.w3.org/2000/svg">
	<symbol id="comparison-icon" viewBox="0 0 40 26">
		<path d="M35.7656 8.10937L36.4531 6.34375H33.2344L33.8125 8.10937H35.7656ZM36.4531 8.6875L33.2344 8.67187V8.6875C32.1094 9.26562 31.3438 10.4375 31.3438 11.7812C31.3438 13.7187 32.9062 15.2656 34.8281 15.2656C36.7656 15.2656 38.3125 13.7031 38.3125 11.7812C38.3438 10.4375 37.5781 9.26562 36.4531 8.6875ZM35.0625 13.4688V13.9687H34.5781V13.5156C34.25 13.5 33.9375 13.4063 33.75 13.3125L33.8906 12.7344C34.0938 12.8437 34.3906 12.9375 34.7031 12.9375C34.9688 12.9375 35.1875 12.8281 35.1875 12.625C35.1875 12.4375 35.0156 12.3125 34.6719 12.2031C34.1562 12.0312 33.7969 11.7812 33.7969 11.3125C33.7969 10.875 34.1094 10.5469 34.625 10.4375V9.98437H35.1094V10.4219C35.4375 10.4375 35.6562 10.5 35.8125 10.5938L35.6719 11.1562C35.5469 11.0937 35.3125 10.9844 34.9688 10.9844C34.6563 10.9844 34.5469 11.125 34.5469 11.25C34.5469 11.4219 34.7188 11.5156 35.125 11.6719C35.7031 11.875 35.9375 12.1562 35.9375 12.5781C35.9375 12.9844 35.625 13.3594 35.0625 13.4688ZM7.625 3.64062L8.70313 0.781249H3.51563L4.42188 3.64062H7.625ZM8.70313 4.57812V4.5625H3.48438V4.57812C1.65625 5.51562 0.4375 7.42187 0.4375 9.60937C0.4375 12.75 2.96875 15.2812 6.10938 15.2812C9.25 15.2812 11.7813 12.75 11.7813 9.60937C11.7813 7.42187 10.5313 5.51562 8.70313 4.57812ZM6.46875 12.3437V13.1563H5.70313V12.4062C5.15625 12.3906 4.67188 12.2344 4.35938 12.0781L4.59375 11.1406C4.92188 11.3281 5.40625 11.5 5.90625 11.5C6.35938 11.5 6.67188 11.3281 6.67188 11C6.67188 10.7031 6.42188 10.5 5.84375 10.3125C4.98438 10.0156 4.40625 9.625 4.40625 8.85937C4.40625 8.15625 4.90625 7.60937 5.75 7.45312V6.70312H6.51563V7.40625C7.0625 7.42187 7.40625 7.53125 7.65625 7.67188L7.42188 8.5625C7.21875 8.48438 6.84375 8.29688 6.28125 8.29688C5.76563 8.29688 5.59375 8.53125 5.59375 8.73437C5.59375 9 5.85938 9.17187 6.54688 9.42188C7.48438 9.75 7.875 10.1875 7.875 10.8906C7.875 11.5781 7.375 12.1719 6.46875 12.3437ZM20.7344 8.39062C23.0156 8.39062 24.8438 6.5625 24.8438 4.28125C24.8438 2 23.0156 0.171875 20.7344 0.171875C18.4531 0.171875 16.625 2 16.625 4.28125C16.625 6.5625 18.4531 8.39062 20.7344 8.39062ZM11.2031 20.3281H3.8125C1.40625 20.3281 1.28125 16.6719 3.85938 16.6719H10.2344L13.9375 11.2656C15.0156 9.76562 16.2656 9.0625 18.0156 9.0625H23.5C25.25 9.0625 26.4844 9.73438 27.5781 11.2656L31.2813 16.6719H37.7188C40.2969 16.6719 40.125 20.3281 37.7969 20.3281H30.4063C29.8281 20.3281 29.125 20.125 28.7031 19.5L25.875 15.4687L25.8594 25.9844H15.75L15.7344 15.4687L12.9375 19.5C12.4844 20.1094 11.7813 20.3281 11.2031 20.3281Z"/>
	</symbol>
</svg>