<svg width="173" height="33" viewBox="0 0 173 33" fill="none" xmlns="http://www.w3.org/2000/svg">
<path d="M48.74 18.91H47.36V25H42.32V6.37H48.41C50.55 6.37 52.14 6.86 53.18 7.84C54.22 8.82 54.74 10.43 54.74 12.67C54.74 14.91 54.25 16.51 53.27 17.47C52.29 18.43 50.78 18.91 48.74 18.91ZM49.31 14.86C49.49 14.52 49.58 13.91 49.58 13.03C49.58 12.15 49.48 11.53 49.28 11.17C49.08 10.81 48.68 10.63 48.08 10.63H47.36V15.37H48.2C48.76 15.37 49.13 15.2 49.31 14.86ZM63.856 15.88C63.856 17.64 64.026 18.9 64.366 19.66C64.726 20.4 65.306 20.77 66.106 20.77C66.906 20.77 68.036 20.58 69.496 20.2L70.276 24.43C68.696 25.01 67.106 25.3 65.506 25.3C63.106 25.3 61.356 24.51 60.256 22.93C59.176 21.33 58.636 18.96 58.636 15.82C58.636 12.66 59.206 10.25 60.346 8.59C61.486 6.91 63.346 6.07 65.926 6.07C67.446 6.07 68.896 6.39 70.276 7.03L69.466 11.68C67.906 11.16 66.816 10.9 66.196 10.9C65.316 10.9 64.706 11.29 64.366 12.07C64.026 12.83 63.856 14.1 63.856 15.88ZM115.381 12.28C115.381 13.4 115.211 14.33 114.871 15.07C114.531 15.81 114.001 16.48 113.281 17.08L115.771 25H110.221L108.361 18.28H107.671V25H102.631V6.37H109.591C111.591 6.37 113.051 6.84 113.971 7.78C114.911 8.72 115.381 10.22 115.381 12.28ZM108.451 15.13C108.971 15.13 109.341 14.98 109.561 14.68C109.781 14.38 109.891 13.84 109.891 13.06C109.891 12.26 109.781 11.71 109.561 11.41C109.341 11.09 108.981 10.93 108.481 10.93H107.671V15.13H108.451ZM130.535 25H120.455V6.37H130.835L130.535 10.96H125.585V13.75H129.875V17.71H125.585V20.8H130.835L130.535 25ZM148.964 25H143.954L143.384 22.06H139.844L139.274 25H134.504L137.924 6.37H145.544L148.964 25ZM142.814 18.55L141.764 11.89H141.554L140.504 18.55H142.814ZM171.555 25H166.845V15.28H166.575L164.805 25H159.975L158.295 15.28H157.995V25H153.345L153.975 6.37H160.725L162.405 16.45H162.645L164.265 6.37H170.925L171.555 25Z" fill="black"/>
<path d="M97.6995 15.28C97.6995 21.76 95.1395 25 90.0195 25H83.8395V6.37H90.1395C92.8795 6.37 94.8195 7.14 95.9595 8.68C97.1195 10.2 97.6995 12.4 97.6995 15.28ZM89.9295 20.68C90.9895 20.68 91.6695 20.31 91.9695 19.57C92.2895 18.81 92.4495 17.55 92.4495 15.79C92.4495 14.01 92.2795 12.75 91.9395 12.01C91.6195 11.27 90.9195 10.9 89.8395 10.9H88.9395V20.68H89.9295Z" fill="#729FD8"/>
<g clip-path="url(#clip0_46_69)">
<path d="M14.4342 25.1694L3.23941 25.1703C2.82441 25.1705 2.37151 25.2084 1.96141 25.1563C0.494074 24.9699 0.410705 23.7486 0.413129 22.6412L0.4141 3.81604C0.413722 2.25958 0.292129 0.736771 2.2742 0.465647C2.88852 0.41069 3.53117 0.465217 4.14863 0.465802L28.6811 0.464744C30.4653 0.462561 31.5994 0.738558 31.6136 2.79192L31.6158 22.6677C31.6175 23.7627 31.4537 24.9118 30.0897 25.1372C29.6486 25.2102 29.1645 25.1708 28.7171 25.1707L17.6052 25.1694V28.8954C17.9895 28.9123 18.3807 28.8963 18.7658 28.8954L21.238 28.8948C21.6674 28.8943 22.1494 28.8499 22.571 28.924C23.5543 29.0967 23.5458 30.5847 22.3189 30.6447C21.4914 30.6853 20.6433 30.6481 19.8135 30.6481L11.2941 30.6475C10.7268 30.6483 9.34088 30.8251 8.90509 30.4085C8.38371 29.91 8.67616 29.0395 9.36434 28.9234C9.82626 28.8454 10.5484 28.8962 11.0391 28.8962L14.4342 28.8954V25.1694ZM4.7819 2.32327C4.39552 2.32273 2.50198 2.26575 2.29669 2.41166C2.23677 2.99362 2.27327 3.60472 2.2733 4.19004L2.2742 17.8066H27.1977C27.5718 17.8071 29.4496 17.8652 29.6477 17.7375C29.8433 17.243 29.7241 14.445 29.7239 13.7484L29.7241 3.94435C29.7241 3.47384 29.7747 2.84572 29.687 2.39595C29.4677 2.22042 27.0777 2.32293 26.6431 2.3229L4.7819 2.32327Z" fill="#729FD8"/>
<path d="M20.6726 7.68399C21.1816 7.27046 22.1787 6.18335 22.7194 6.01165C23.9998 5.93456 23.3011 8.32551 23.5439 9.20844C23.6001 9.41237 23.759 9.62962 23.8498 9.82607C24.4652 11.1578 24.3181 13.2749 23.2741 14.335C22.1736 15.4525 21.0891 15.8328 19.5432 15.8376L11.6281 15.8371C9.0376 15.8432 7.77458 14.9941 7.77441 12.281L7.77578 10.9834C7.77174 10.5534 7.69431 9.9738 8.0134 9.63426C8.47471 9.1433 9.31097 9.3449 9.53329 9.97466C10.0241 11.3649 8.66713 14.0298 11.0656 14.0633C11.0266 11.8215 12.5622 9.80691 14.8595 9.56714C15.2246 9.52907 15.5939 9.54411 15.9603 9.54978C15.9184 8.90645 15.9691 7.29959 16.0607 6.63547C16.2896 4.97447 18.3065 7.33861 18.7658 7.68399H20.6726Z" fill="#729FD8"/>
</g>
<defs>
<clipPath id="clip0_46_69">
<rect width="32" height="31" fill="white"/>
</clipPath>
</defs>
</svg>
