<svg width="35" height="35" viewBox="0 0 35 35" fill="none" xmlns="http://www.w3.org/2000/svg">
<g clip-path="url(#clip0_34_19)">
<path d="M29.75 0H5.25C2.35051 0 0 2.35051 0 5.25V29.75C0 32.6495 2.35051 35 5.25 35H29.75C32.6495 35 35 32.6495 35 29.75V5.25C35 2.35051 32.6495 0 29.75 0Z" fill="#729FD8"/>
<path d="M13.6035 27.6172C12.8516 27.6172 12.9199 27.3438 12.7148 26.6602L10.5273 19.4824L27.2754 9.63867" fill="#C8DAEA"/>
<path d="M13.6035 27.6172C14.082 27.6172 14.3555 27.3438 14.6973 27.0703L17.7734 24.1309L13.9453 21.8066" fill="#A9C9DD"/>
<path d="M13.9453 21.8067L23.1738 28.5742C24.1309 29.1895 24.9512 28.8477 25.2246 27.6172L28.9844 9.98049C29.3262 8.47659 28.3692 7.79299 27.3438 8.27151L5.40041 16.7481C3.96486 17.2949 3.96486 18.1836 5.12697 18.5254L10.8008 20.3028L23.7891 12.0313C24.4043 11.6895 24.9512 11.8262 24.541 12.3047" fill="#F6FBFE"/>
</g>
<defs>
<clipPath id="clip0_34_19">
<rect width="35" height="35" fill="white"/>
</clipPath>
</defs>
</svg>
