<svg fill="currentColor" viewBox="0 0 27 33" xmlns="http://www.w3.org/2000/svg">
	<symbol id="trash-icon" viewBox="0 0 27 33">
		<path fill-rule="evenodd" clip-rule="evenodd" d="M7.3125 15.4688C7.3125 14.8995 7.7745 14.4375 8.34375 14.4375C8.913 14.4375 9.375 14.8995 9.375 15.4688V27.8438C9.375 28.414 8.913 28.875 8.34375 28.875C7.7745 28.875 7.3125 28.414 7.3125 27.8438V15.4688ZM12.4688 15.4688C12.4688 14.8995 12.9307 14.4375 13.5 14.4375C14.0693 14.4375 14.5312 14.8995 14.5312 15.4688V27.8438C14.5312 28.414 14.0693 28.875 13.5 28.875C12.9307 28.875 12.4688 28.414 12.4688 27.8438V15.4688ZM17.625 15.4688C17.625 14.8995 18.087 14.4375 18.6562 14.4375C19.2255 14.4375 19.6875 14.8995 19.6875 15.4688V27.8438C19.6875 28.414 19.2255 28.875 18.6562 28.875C18.087 28.875 17.625 28.414 17.625 27.8438V15.4688ZM2.15625 28.875C2.15625 31.153 4.00322 33 6.28125 33H20.7188C22.9968 33 24.8438 31.153 24.8438 28.875V12.375H2.15625V28.875ZM16.5938 4.125H10.4062V3.09375C10.4062 2.52347 10.8682 2.0625 11.4375 2.0625H15.5625C16.1318 2.0625 16.5938 2.52347 16.5938 3.09375V4.125ZM24.8438 4.125H18.6562V2.0625C18.6562 0.924 17.7323 0 16.5938 0H10.4062C9.26775 0 8.34375 0.924 8.34375 2.0625V4.125H2.15625C1.01775 4.125 0.09375 5.049 0.09375 6.1875V8.25C0.09375 9.3885 1.01671 10.3115 2.15521 10.3125H24.8458C25.9833 10.3115 26.9062 9.3885 26.9062 8.25V6.1875C26.9062 5.049 25.9823 4.125 24.8438 4.125Z"/>
	</symbol>
</svg>
