<svg width="35" height="35" viewBox="0 0 35 35" fill="none" xmlns="http://www.w3.org/2000/svg">
<path d="M32.1825 10.1347C32.0073 9.48827 31.6659 8.899 31.1924 8.42544C30.7188 7.95187 30.1295 7.61051 29.4831 7.43529C27.0856 6.8031 17.5 6.8031 17.5 6.8031C17.5 6.8031 7.91438 6.8031 5.51688 7.43529C4.20438 7.78748 3.17188 8.82216 2.8175 10.1347C2.1875 12.53 2.1875 17.5 2.1875 17.5C2.1875 17.5 2.1875 22.494 2.8175 24.8653C3.17188 26.1778 4.20656 27.2125 5.51688 27.5647C7.91438 28.1969 17.5 28.1969 17.5 28.1969C17.5 28.1969 27.0856 28.1969 29.4831 27.5647C30.1295 27.3894 30.7188 27.0481 31.1924 26.5745C31.6659 26.101 32.0073 25.5117 32.1825 24.8653C32.8125 22.47 32.8125 17.5 32.8125 17.5C32.8125 17.5 32.8125 12.53 32.1825 10.1347Z" fill="#FF0000"/>
<path d="M14.4222 22.1156L22.3934 17.5263L14.4222 12.9106V22.1156Z" fill="white"/>
</svg>
